<svg width="30" height="30" viewBox="0 0 30 30" fill="none" xmlns="http://www.w3.org/2000/svg">
<path fill-rule="evenodd" clip-rule="evenodd" d="M7.85714 5H22.1429C22.9006 5 23.6273 5.30102 24.1632 5.83684C24.699 6.37266 25 7.09938 25 7.85714V22.1429C25 22.9006 24.699 23.6273 24.1632 24.1632C23.6273 24.699 22.9006 25 22.1429 25H7.85714C7.09938 25 6.37266 24.699 5.83684 24.1632C5.30102 23.6273 5 22.9006 5 22.1429V7.85714C5 7.09938 5.30102 6.37266 5.83684 5.83684C6.37266 5.30102 7.09938 5 7.85714 5Z" stroke="white" stroke-linecap="round" stroke-linejoin="round"/>
<path d="M25 19.2857L20.7143 15L16.4286 19.2643M22.1429 25L9.28571 12.1428L5 16.4285" stroke="white" stroke-linecap="round" stroke-linejoin="round"/>
<path d="M20.0001 11.4286C20.7891 11.4286 21.4287 10.789 21.4287 9.99998C21.4287 9.211 20.7891 8.57141 20.0001 8.57141C19.2111 8.57141 18.5715 9.211 18.5715 9.99998C18.5715 10.789 19.2111 11.4286 20.0001 11.4286Z" fill="white"/>
</svg>
