<svg width="24" height="24" viewBox="0 0 24 24" fill="none" xmlns="http://www.w3.org/2000/svg">
<path d="M12 1C11.05 1 10.415 1.682 10.063 2.282C9.702 2.901 9.5 3.656 9.5 4.25C9.5 4.744 9.563 5.424 9.932 5.996C10.343 6.63 11.039 7 12 7C12.961 7 13.658 6.63 14.068 5.996C14.438 5.424 14.5 4.744 14.5 4.25C14.5 3.656 14.298 2.9 13.937 2.282C13.586 1.682 12.95 1 12 1ZM11 4.25C11 3.94 11.121 3.445 11.358 3.04C11.606 2.616 11.845 2.5 12 2.5C12.155 2.5 12.394 2.616 12.642 3.04C12.879 3.445 13 3.94 13 4.25C13 4.66 12.938 4.98 12.807 5.182C12.717 5.322 12.537 5.5 12 5.5C11.462 5.5 11.283 5.322 11.193 5.182C11.063 4.98 11 4.66 11 4.25ZM20.5 10.25V18.5H21.25C21.4489 18.5 21.6397 18.579 21.7803 18.7197C21.921 18.8603 22 19.0511 22 19.25C22 19.4489 21.921 19.6397 21.7803 19.7803C21.6397 19.921 21.4489 20 21.25 20H2.75C2.55109 20 2.36032 19.921 2.21967 19.7803C2.07902 19.6397 2 19.4489 2 19.25C2 19.0511 2.07902 18.8603 2.21967 18.7197C2.36032 18.579 2.55109 18.5 2.75 18.5H3.5V10.25C3.5 9.65326 3.73705 9.08097 4.15901 8.65901C4.58097 8.23705 5.15326 8 5.75 8H18.25C18.8467 8 19.419 8.23705 19.841 8.65901C20.2629 9.08097 20.5 9.65326 20.5 10.25ZM5 10.25V12.341L7.447 13.921C7.64907 14.0515 7.88448 14.1208 8.125 14.1208C8.36552 14.1208 8.60093 14.0515 8.803 13.921L10.55 12.793C10.9807 12.5153 11.4805 12.3634 11.9929 12.3546C12.5053 12.3458 13.01 12.4803 13.45 12.743L15.459 13.942C15.6662 14.0657 15.9047 14.1269 16.1459 14.118C16.387 14.1091 16.6205 14.0306 16.818 13.892L19 12.36V10.25C19 10.0511 18.921 9.86032 18.7803 9.71967C18.6397 9.57902 18.4489 9.5 18.25 9.5H5.75C5.55109 9.5 5.36032 9.57902 5.21967 9.71967C5.07902 9.86032 5 10.0511 5 10.25ZM17.68 15.12C17.2454 15.425 16.7318 15.5977 16.2013 15.6172C15.6707 15.6367 15.1458 15.5023 14.69 15.23L12.682 14.03C12.4819 13.9105 12.2523 13.8493 12.0192 13.8533C11.7861 13.8574 11.5588 13.9266 11.363 14.053L9.616 15.181C9.17158 15.4678 8.6539 15.6203 8.125 15.6203C7.5961 15.6203 7.07842 15.4678 6.634 15.181L5 14.126V18.5H19V14.193L17.68 15.12Z" fill="#49A6D0"/>
</svg>
