<svg width="20" height="20" viewBox="0 0 20 20" fill="none" xmlns="http://www.w3.org/2000/svg">
<path d="M11.6042 2.08677C11.931 2.08674 12.252 2.17208 12.5356 2.33433C12.8191 2.49658 13.0554 2.73011 13.2209 3.01177L13.8992 4.1676H15.6251C16.3432 4.1676 17.032 4.45283 17.5399 4.96056C18.0478 5.46829 18.3332 6.15695 18.3334 6.8751V14.7918C18.3334 15.1474 18.2634 15.4996 18.1273 15.8282C17.9911 16.1568 17.7917 16.4554 17.5402 16.7069C17.2887 16.9583 16.9901 17.1578 16.6615 17.2939C16.3329 17.4301 15.9807 17.5001 15.6251 17.5001H4.37508C3.65679 17.5001 2.96791 17.2148 2.46 16.7069C1.95209 16.1989 1.66675 15.5101 1.66675 14.7918V6.8751C1.66675 6.15681 1.95209 5.46793 2.46 4.96002C2.96791 4.45211 3.65679 4.16677 4.37508 4.16677H6.10841L6.83758 2.9801C7.00524 2.70695 7.24011 2.48134 7.51978 2.3248C7.79945 2.16826 8.11458 2.08602 8.43508 2.08594L11.6042 2.08677ZM11.6042 3.33677H8.43508C8.34389 3.33685 8.25381 3.35688 8.17118 3.39546C8.08855 3.43404 8.01536 3.49023 7.95675 3.5601L7.90258 3.6351L6.99175 5.11844C6.9359 5.20954 6.85762 5.2848 6.76439 5.33703C6.67117 5.38926 6.56611 5.41671 6.45925 5.41677H4.37591C4.18433 5.41666 3.99461 5.4543 3.81758 5.52754C3.64055 5.60078 3.47969 5.70818 3.34418 5.84361C3.20867 5.97904 3.10118 6.13984 3.02784 6.31683C2.9545 6.49382 2.91675 6.68352 2.91675 6.8751V14.7918C2.91675 15.5968 3.57008 16.2501 4.37508 16.2501H15.6251C16.0119 16.2501 16.3828 16.0965 16.6563 15.823C16.9298 15.5495 17.0834 15.1785 17.0834 14.7918V6.8751C17.0834 6.48833 16.9298 6.1174 16.6563 5.84391C16.3828 5.57042 16.0119 5.41677 15.6251 5.41677H13.5417C13.4328 5.41683 13.3257 5.3884 13.2312 5.33432C13.1366 5.28023 13.0578 5.20237 13.0026 5.10844L12.1426 3.64427C12.0875 3.55046 12.0088 3.47267 11.9144 3.4186C11.82 3.36452 11.7131 3.33603 11.6042 3.33594M10.0001 6.66677C10.9946 6.66677 11.9485 7.06186 12.6517 7.76512C13.355 8.46838 13.7501 9.42221 13.7501 10.4168C13.7501 11.4113 13.355 12.3652 12.6517 13.0684C11.9485 13.7717 10.9946 14.1668 10.0001 14.1668C9.00552 14.1668 8.05169 13.7717 7.34843 13.0684C6.64517 12.3652 6.25008 11.4113 6.25008 10.4168C6.25008 9.42221 6.64517 8.46838 7.34843 7.76512C8.05169 7.06186 9.00552 6.66677 10.0001 6.66677ZM10.0001 7.91677C9.67178 7.91677 9.34669 7.98143 9.04337 8.10707C8.74006 8.23271 8.46446 8.41686 8.23231 8.649C8.00017 8.88115 7.81602 9.15675 7.69038 9.46006C7.56475 9.76338 7.50008 10.0885 7.50008 10.4168C7.50008 10.7451 7.56475 11.0702 7.69038 11.3735C7.81602 11.6768 8.00017 11.9524 8.23231 12.1845C8.46446 12.4167 8.74006 12.6008 9.04337 12.7265C9.34669 12.8521 9.67178 12.9168 10.0001 12.9168C10.6631 12.9168 11.299 12.6534 11.7678 12.1845C12.2367 11.7157 12.5001 11.0798 12.5001 10.4168C12.5001 9.75373 12.2367 9.11784 11.7678 8.649C11.299 8.18016 10.6631 7.91677 10.0001 7.91677Z" fill="#9D9D9D"/>
</svg>
