<svg width="28" height="28" viewBox="0 0 28 28" fill="none" xmlns="http://www.w3.org/2000/svg">
<path d="M25.375 24.1378L18.767 17.5298C20.3549 15.6234 21.1468 13.1783 20.9778 10.703C20.8088 8.22764 19.6921 5.91276 17.8598 4.23987C16.0276 2.56698 13.6209 1.66488 11.1404 1.72124C8.66001 1.7776 6.29679 2.78808 4.5424 4.54246C2.78802 6.29685 1.77754 8.66007 1.72118 11.1405C1.66482 13.6209 2.56692 16.0276 4.23981 17.8599C5.9127 19.6921 8.22758 20.8089 10.7029 20.9779C13.1782 21.1468 15.6234 20.355 17.5297 18.767L24.1377 25.375L25.375 24.1378ZM3.49998 11.375C3.49998 9.81751 3.96184 8.29496 4.82716 6.99992C5.69247 5.70489 6.92238 4.69553 8.36135 4.09949C9.80031 3.50345 11.3837 3.3475 12.9113 3.65136C14.4389 3.95521 15.8421 4.70524 16.9434 5.80657C18.0448 6.90791 18.7948 8.3111 19.0987 9.8387C19.4025 11.3663 19.2466 12.9497 18.6505 14.3887C18.0545 15.8276 17.0451 17.0575 15.7501 17.9229C14.4551 18.7882 12.9325 19.25 11.375 19.25C9.28711 19.2477 7.28542 18.4173 5.80907 16.9409C4.33272 15.4646 3.5023 13.4629 3.49998 11.375Z" fill="#9F9F9F"/>
</svg>
