<svg width="25" height="25" viewBox="0 0 25 25" fill="none" xmlns="http://www.w3.org/2000/svg">
<path d="M9.53429 5.6335C10.8541 3.26683 11.5135 2.0835 12.4999 2.0835C13.4864 2.0835 14.1458 3.26683 15.4655 5.6335L15.8072 6.246C16.1822 6.91891 16.3697 7.25537 16.6614 7.47725C16.953 7.69912 17.3176 7.78141 18.0468 7.946L18.7093 8.096C21.2718 8.6762 22.552 8.96579 22.8572 9.946C23.1614 10.9252 22.2885 11.947 20.5416 13.9897L20.0895 14.5179C19.5937 15.0981 19.3447 15.3887 19.2333 15.747C19.1218 16.1064 19.1593 16.4939 19.2343 17.2679L19.303 17.9731C19.5666 20.6991 19.6989 22.0616 18.901 22.6668C18.103 23.272 16.903 22.72 14.5051 21.6158L13.8833 21.3304C13.202 21.0158 12.8614 20.8595 12.4999 20.8595C12.1385 20.8595 11.7978 21.0158 11.1166 21.3304L10.4958 21.6158C8.09679 22.72 6.89679 23.272 6.09992 22.6679C5.30096 22.0616 5.43325 20.6991 5.69679 17.9731L5.76554 17.2689C5.84054 16.4939 5.87804 16.1064 5.76554 15.7481C5.65513 15.3887 5.40617 15.0981 4.91034 14.5189L4.45825 13.9897C2.71138 11.9481 1.83846 10.9262 2.14263 9.946C2.44679 8.96579 3.72909 8.67516 6.29159 8.096L6.95409 7.946C7.68221 7.78141 8.04575 7.69912 8.33846 7.47725C8.63117 7.25537 8.81763 6.91891 9.19263 6.246L9.53429 5.6335Z" stroke="#666666" stroke-width="1.5"/>
</svg>
