<svg width="25" height="25" viewBox="0 0 25 25" fill="none" xmlns="http://www.w3.org/2000/svg">
<path fill-rule="evenodd" clip-rule="evenodd" d="M4.78341 15.9417C2.44174 10.1948 6.66987 3.90625 12.8751 3.90625H13.2094C15.4382 3.9068 17.5755 4.79242 19.1515 6.36838C20.7274 7.94435 21.6131 10.0817 21.6136 12.3104C21.6139 13.5392 21.3721 14.7559 20.902 15.8912C20.4319 17.0265 19.7427 18.058 18.8738 18.9269C18.005 19.7958 16.9734 20.4849 15.8382 20.955C14.7029 21.4251 13.4861 21.6669 12.2574 21.6667H4.11153C3.94968 21.6668 3.79178 21.6167 3.65964 21.5232C3.52751 21.4297 3.42767 21.2975 3.37393 21.1449C3.32018 20.9922 3.31517 20.8266 3.3596 20.671C3.40403 20.5153 3.4957 20.3773 3.62195 20.276L5.67508 18.6271C5.71897 18.5919 5.75031 18.5435 5.76439 18.489C5.77847 18.4346 5.77455 18.377 5.7532 18.325L4.78341 15.9417ZM12.8751 5.46875C7.7782 5.46875 4.30633 10.6323 6.22924 15.3521L7.20008 17.7365C7.34799 18.0999 7.37467 18.5014 7.27614 18.8813C7.17762 19.2611 6.95914 19.599 6.6532 19.8448L6.33133 20.1042H12.2574C13.2809 20.1044 14.2945 19.903 15.2402 19.5115C16.1859 19.1199 17.0452 18.5458 17.769 17.822C18.4928 17.0983 19.0668 16.239 19.4584 15.2933C19.85 14.3476 20.0514 13.334 20.0511 12.3104C20.0506 10.4961 19.3296 8.75618 18.0466 7.47324C16.7637 6.1903 15.0238 5.4693 13.2094 5.46875H12.8751Z" fill="#666666"/>
</svg>
