<svg width="35" height="35" viewBox="0 0 35 35" fill="none" xmlns="http://www.w3.org/2000/svg">
<path d="M0 9.84375C0 4.4072 4.4072 0 9.84375 0H25.1562C30.5928 0 35 4.4072 35 9.84375V25.1562C35 30.5928 30.5928 35 25.1562 35H9.84375C4.4072 35 0 30.5928 0 25.1562V9.84375Z" fill="white"/>
<path d="M17.5 7.00034C18.4609 7.00034 19.3867 7.12534 20.2773 7.37533C21.1678 7.62532 22.0038 7.97687 22.785 8.42999C23.5662 8.88309 24.2771 9.43386 24.9177 10.0823C25.5583 10.7307 26.1052 11.4377 26.5583 12.2033C27.0114 12.9689 27.3669 13.8048 27.6247 14.711C27.8825 15.6172 28.0075 16.5469 27.9997 17.5C27.9997 18.4609 27.8747 19.3867 27.6247 20.2773C27.3747 21.1678 27.0231 22.0038 26.57 22.785C26.1169 23.5662 25.5661 24.2771 24.9177 24.9177C24.2693 25.5583 23.5623 26.1052 22.7967 26.5583C22.0311 27.0114 21.1952 27.3669 20.289 27.6247C19.3828 27.8825 18.4531 28.0075 17.5 27.9997C16.5391 27.9997 15.6133 27.8747 14.7227 27.6247C13.8322 27.3747 12.9962 27.0231 12.215 26.57C11.4338 26.1169 10.7229 25.5661 10.0823 24.9177C9.44167 24.2693 8.89481 23.5623 8.4417 22.7967C7.98859 22.0311 7.63314 21.1952 7.37533 20.289C7.11753 19.3828 6.99253 18.4531 7.00034 17.5C7.00034 16.5391 7.12534 15.6133 7.37533 14.7227C7.62532 13.8322 7.97687 12.9962 8.42999 12.215C8.88309 11.4338 9.43386 10.7229 10.0823 10.0823C10.7307 9.44167 11.4377 8.89481 12.2033 8.4417C12.9689 7.98859 13.8048 7.63314 14.711 7.37533C15.6172 7.11753 16.5469 6.99253 17.5 7.00034ZM17.5 26.4997C18.3281 26.4997 19.1249 26.3942 19.8905 26.1833C20.6561 25.9724 21.371 25.6677 22.035 25.2693C22.699 24.8709 23.3084 24.4021 23.8631 23.8631C24.4177 23.324 24.8865 22.7186 25.2693 22.0467C25.6521 21.3749 25.9528 20.6561 26.1716 19.8905C26.3903 19.1249 26.4997 18.3281 26.4997 17.5C26.4997 16.6719 26.3942 15.8751 26.1833 15.1095C25.9724 14.3439 25.6677 13.629 25.2693 12.965C24.8709 12.301 24.4021 11.6916 23.8631 11.1369C23.324 10.5823 22.7186 10.1135 22.0467 9.73072C21.3749 9.34792 20.6561 9.04715 19.8905 8.82841C19.1249 8.60967 18.3281 8.5003 17.5 8.5003C16.6719 8.5003 15.8751 8.60576 15.1095 8.81669C14.3439 9.02762 13.629 9.3323 12.965 9.73072C12.301 10.1291 11.6916 10.5979 11.1369 11.1369C10.5823 11.676 10.1135 12.2814 9.73072 12.9533C9.34792 13.6251 9.04715 14.3439 8.82841 15.1095C8.60967 15.8751 8.5003 16.6719 8.5003 17.5C8.5003 18.3281 8.60576 19.1249 8.81669 19.8905C9.02762 20.6561 9.3323 21.371 9.73072 22.035C10.1291 22.699 10.5979 23.3084 11.1369 23.8631C11.676 24.4177 12.2814 24.8865 12.9533 25.2693C13.6251 25.6521 14.3439 25.9528 15.1095 26.1716C15.8751 26.3903 16.6719 26.4997 17.5 26.4997ZM17.5 13.0001C18.1172 13.0001 18.6992 13.1173 19.246 13.3517C19.7929 13.5861 20.2694 13.9103 20.6757 14.3243C21.0819 14.7384 21.4022 15.2149 21.6366 15.754C21.871 16.293 21.992 16.875 21.9999 17.5C21.9999 18.1172 21.8827 18.6992 21.6483 19.246C21.4139 19.7929 21.0897 20.2694 20.6757 20.6757C20.2616 21.0819 19.7851 21.4022 19.246 21.6366C18.707 21.871 18.125 21.992 17.5 21.9999C16.8828 21.9999 16.3008 21.8827 15.754 21.6483C15.2071 21.4139 14.7306 21.0897 14.3243 20.6757C13.9181 20.2616 13.5978 19.7851 13.3634 19.246C13.129 18.707 13.008 18.125 13.0001 17.5C13.0001 16.8828 13.1173 16.3008 13.3517 15.754C13.5861 15.2071 13.9103 14.7306 14.3243 14.3243C14.7384 13.9181 15.2149 13.5978 15.754 13.3634C16.293 13.129 16.875 13.008 17.5 13.0001Z" fill="#4D8AF2"/>
</svg>
