<svg width="37" height="37" viewBox="0 0 37 37" fill="none" xmlns="http://www.w3.org/2000/svg">
<path d="M18.5 26.4601H25.8119V11.8362H11.1881V14.2735M18.5 26.4601H16.1402M18.5 26.4601V16.7108H16.1402M11.1881 14.2735H16.1402V16.7108M11.1881 14.2735V16.7108M16.1402 26.4601H11.1881V16.7108M16.1402 26.4601V19.1481M16.1402 16.7108H11.1881M16.1402 16.7108V19.1481M11.1881 16.7108L16.1402 19.1481M36 18.5C36 28.165 28.165 36 18.5 36C8.83502 36 1 28.165 1 18.5C1 8.83502 8.83502 1 18.5 1C28.165 1 36 8.83502 36 18.5ZM11.0598 9.65548H25.9402C27.0737 9.65548 27.9927 10.5744 27.9927 11.7079V26.5883C27.9927 27.7219 27.0737 28.6408 25.9402 28.6408H11.0598C9.92625 28.6408 9.00733 27.7219 9.00733 26.5883V11.7079C9.00733 10.5744 9.92625 9.65548 11.0598 9.65548Z" stroke="#D5A320" stroke-linecap="round" stroke-linejoin="round"/>
</svg>
