<svg width="15" height="15" viewBox="0 0 15 15" fill="none" xmlns="http://www.w3.org/2000/svg">
<path d="M14.3835 7.35762C14.3636 7.31191 13.8761 6.23086 12.7874 5.14219C11.7773 4.1332 10.0417 2.92969 7.49991 2.92969C4.95812 2.92969 3.22257 4.1332 2.21241 5.14219C1.12374 6.23086 0.636243 7.31016 0.616321 7.35762C0.596289 7.40262 0.585938 7.45133 0.585938 7.50059C0.585938 7.54984 0.596289 7.59855 0.616321 7.64355C0.636243 7.68867 1.12374 8.76973 2.21241 9.8584C3.22257 10.8674 4.95812 12.0703 7.49991 12.0703C10.0417 12.0703 11.7773 10.8674 12.7874 9.8584C13.8761 8.76973 14.3636 7.69043 14.3835 7.64355C14.4035 7.59855 14.4139 7.54984 14.4139 7.50059C14.4139 7.45133 14.4035 7.40262 14.3835 7.35762ZM7.49991 11.3672C5.66124 11.3672 4.05577 10.698 2.72745 9.3791C2.17064 8.82569 1.69945 8.19236 1.32941 7.5C1.69935 6.80775 2.17056 6.1746 2.72745 5.62148C4.05577 4.30195 5.66124 3.63281 7.49991 3.63281C9.33859 3.63281 10.9441 4.30195 12.2724 5.62148C12.8293 6.1746 13.3005 6.80775 13.6704 7.5C13.2972 8.21543 11.4257 11.3672 7.49991 11.3672ZM7.49991 4.80469C6.96683 4.80469 6.44572 4.96276 6.00248 5.25893C5.55924 5.55509 5.21377 5.97604 5.00977 6.46855C4.80577 6.96105 4.75239 7.50299 4.85639 8.02583C4.96039 8.54867 5.21709 9.02893 5.59404 9.40587C5.97099 9.78282 6.45125 10.0395 6.97409 10.1435C7.49692 10.2475 8.03886 10.1941 8.53137 9.99014C9.02387 9.78614 9.44482 9.44068 9.74098 8.99744C10.0371 8.55419 10.1952 8.03308 10.1952 7.5C10.1943 6.78544 9.91003 6.10042 9.40476 5.59515C8.89949 5.08989 8.21447 4.80562 7.49991 4.80469ZM7.49991 9.49219C7.1059 9.49219 6.72073 9.37535 6.39311 9.15644C6.0655 8.93754 5.81016 8.6264 5.65937 8.26238C5.50859 7.89835 5.46914 7.49779 5.54601 7.11134C5.62288 6.7249 5.81261 6.36992 6.09123 6.09131C6.36984 5.8127 6.72481 5.62296 7.11126 5.54609C7.4977 5.46922 7.89827 5.50867 8.26229 5.65946C8.62632 5.81024 8.93745 6.06559 9.15636 6.3932C9.37526 6.72081 9.4921 7.10598 9.4921 7.5C9.4921 8.02836 9.28221 8.53508 8.9086 8.90869C8.535 9.2823 8.02828 9.49219 7.49991 9.49219Z" fill="#CCCCCC"/>
</svg>
