<svg width="25" height="25" viewBox="0 0 25 25" fill="none" xmlns="http://www.w3.org/2000/svg">
<path d="M20.3126 2.53906H16.4063C16.2509 2.53906 16.1019 2.60079 15.992 2.71068C15.8821 2.82056 15.8204 2.9696 15.8204 3.125C15.8204 3.2804 15.8821 3.42944 15.992 3.53932C16.1019 3.64921 16.2509 3.71094 16.4063 3.71094H18.8985L15.9688 6.63477C15.2797 5.95184 14.4365 5.44453 13.5103 5.15557C12.5841 4.8666 11.602 4.80445 10.6468 4.97435C9.69157 5.14424 8.79116 5.54121 8.0214 6.1318C7.25164 6.7224 6.63509 7.48934 6.22367 8.36801C5.81224 9.24668 5.61801 10.2114 5.65732 11.1808C5.69662 12.1502 5.96832 13.096 6.44953 13.9385C6.93074 14.781 7.60736 15.4955 8.42241 16.0218C9.23746 16.5481 10.1671 16.8709 11.1329 16.9629V18.9453H8.59385C8.43845 18.9453 8.28941 19.007 8.17953 19.1169C8.06964 19.2268 8.00791 19.3758 8.00791 19.5312C8.00791 19.6867 8.06964 19.8357 8.17953 19.9456C8.28941 20.0555 8.43845 20.1172 8.59385 20.1172H11.1329V22.6562C11.1329 22.8117 11.1946 22.9607 11.3045 23.0706C11.4144 23.1805 11.5634 23.2422 11.7188 23.2422C11.8742 23.2422 12.0233 23.1805 12.1332 23.0706C12.2431 22.9607 12.3048 22.8117 12.3048 22.6562V20.1172H14.8438C14.9992 20.1172 15.1483 20.0555 15.2582 19.9456C15.3681 19.8357 15.4298 19.6867 15.4298 19.5312C15.4298 19.3758 15.3681 19.2268 15.2582 19.1169C15.1483 19.007 14.9992 18.9453 14.8438 18.9453H12.3048V16.9629C13.3496 16.8607 14.35 16.4885 15.2076 15.883C16.0652 15.2775 16.7506 14.4593 17.1966 13.5089C17.6426 12.5585 17.8337 11.5084 17.7513 10.4618C17.6689 9.41521 17.3158 8.408 16.7267 7.53906L19.7267 4.53906V7.03125C19.7267 7.18665 19.7884 7.33569 19.8983 7.44557C20.0082 7.55545 20.1572 7.61719 20.3126 7.61719C20.468 7.61719 20.617 7.55545 20.7269 7.44557C20.8368 7.33569 20.8985 7.18665 20.8985 7.03125V3.125C20.8985 2.9696 20.8368 2.82056 20.7269 2.71068C20.617 2.60079 20.468 2.53906 20.3126 2.53906ZM11.7188 15.8203C10.7531 15.8203 9.80907 15.5339 9.0061 14.9974C8.20313 14.4609 7.57728 13.6983 7.20771 12.8061C6.83815 11.9139 6.74145 10.9321 6.92986 9.98491C7.11826 9.03774 7.5833 8.1677 8.26618 7.48483C8.94905 6.80196 9.81908 6.33691 10.7663 6.14851C11.7134 5.9601 12.6952 6.0568 13.5874 6.42637C14.4796 6.79594 15.2422 7.42178 15.7788 8.22475C16.3153 9.02773 16.6017 9.97177 16.6017 10.9375C16.6001 12.232 16.0852 13.4731 15.1698 14.3885C14.2544 15.3038 13.0134 15.8188 11.7188 15.8203Z" fill="#49A6D0"/>
</svg>
