<svg width="35" height="35" viewBox="0 0 35 35" fill="none" xmlns="http://www.w3.org/2000/svg">
<path d="M0 9.84375C0 4.4072 4.4072 0 9.84375 0H25.1562C30.5928 0 35 4.4072 35 9.84375V25.1562C35 30.5928 30.5928 35 25.1562 35H9.84375C4.4072 35 0 30.5928 0 25.1562V9.84375Z" fill="white"/>
<path d="M17.5 13.125C15.0828 13.125 13.125 15.0828 13.125 17.5C13.125 19.9172 15.0828 21.875 17.5 21.875C19.9172 21.875 21.875 19.9172 21.875 17.5C21.875 15.0828 19.9172 13.125 17.5 13.125ZM27.2781 16.4062C27.0304 14.1883 26.0358 12.1204 24.4577 10.5423C22.8796 8.96421 20.8117 7.96962 18.5938 7.72187V5.46875H16.4062V7.72187C14.1883 7.96962 12.1204 8.96421 10.5423 10.5423C8.96421 12.1204 7.96962 14.1883 7.72187 16.4062H5.46875V18.5938H7.72187C7.96962 20.8117 8.96421 22.8796 10.5423 24.4577C12.1204 26.0358 14.1883 27.0304 16.4062 27.2781V29.5312H18.5938V27.2781C20.8117 27.0304 22.8796 26.0358 24.4577 24.4577C26.0358 22.8796 27.0304 20.8117 27.2781 18.5938H29.5312V16.4062H27.2781ZM17.5 25.1562C13.2672 25.1562 9.84375 21.7328 9.84375 17.5C9.84375 13.2672 13.2672 9.84375 17.5 9.84375C21.7328 9.84375 25.1562 13.2672 25.1562 17.5C25.1562 21.7328 21.7328 25.1562 17.5 25.1562Z" fill="#767171"/>
</svg>
