<svg width="25" height="25" viewBox="0 0 25 25" fill="none" xmlns="http://www.w3.org/2000/svg">
<g clip-path="url(#clip0_444_1122)">
<mask id="mask0_444_1122" style="mask-type:luminance" maskUnits="userSpaceOnUse" x="0" y="0" width="25" height="25">
<path d="M0 0H25V25H0V0Z" fill="white"/>
<path fill-rule="evenodd" clip-rule="evenodd" d="M8.81916 7.91539L8.42492 9.13462H7.21146C6.57392 9.13462 5.9625 9.38788 5.51169 9.83869C5.06088 10.2895 4.80762 10.9009 4.80762 11.5385V17.3077C4.80762 17.6234 4.86979 17.936 4.9906 18.2276C5.1114 18.5193 5.28847 18.7843 5.51169 19.0075C5.73491 19.2307 5.9999 19.4078 6.29155 19.5286C6.5832 19.6494 6.89579 19.7115 7.21146 19.7115H17.7884C18.1041 19.7115 18.4167 19.6494 18.7083 19.5286C18.9999 19.4078 19.2649 19.2307 19.4882 19.0075C19.7114 18.7843 19.8884 18.5193 20.0092 18.2276C20.1301 17.936 20.1922 17.6234 20.1922 17.3077V11.5385C20.1922 10.9009 19.939 10.2895 19.4882 9.83869C19.0374 9.38788 18.4259 9.13462 17.7884 9.13462H16.574L16.1807 7.91539C16.0245 7.4314 15.7188 7.00944 15.3075 6.71019C14.8963 6.41094 14.4008 6.24982 13.8922 6.25H11.1067C10.5981 6.24982 10.1026 6.41094 9.69135 6.71019C9.28013 7.00944 8.97443 7.4314 8.81819 7.91539M7.21146 10.0962H9.12492L9.73358 8.21154C9.82719 7.92101 10.0106 7.66766 10.2573 7.48797C10.504 7.30827 10.8014 7.21148 11.1067 7.21154H13.8932C14.1983 7.21169 14.4954 7.30857 14.742 7.48825C14.9885 7.66793 15.1718 7.92116 15.2653 8.21154L15.874 10.0962H17.7884C18.1709 10.0962 18.5378 10.2481 18.8083 10.5186C19.0787 10.7891 19.2307 11.1559 19.2307 11.5385V17.3077C19.2307 17.6902 19.0787 18.0571 18.8083 18.3276C18.5378 18.598 18.1709 18.75 17.7884 18.75H7.21146C6.82894 18.75 6.46208 18.598 6.1916 18.3276C5.92111 18.0571 5.76916 17.6902 5.76916 17.3077V11.5385C5.76916 11.1559 5.92111 10.7891 6.1916 10.5186C6.46208 10.2481 6.82894 10.0962 7.21146 10.0962Z" fill="black"/>
<path fill-rule="evenodd" clip-rule="evenodd" d="M9.61523 13.9422C9.61523 14.7073 9.91915 15.441 10.4601 15.982C11.0011 16.5229 11.7348 16.8268 12.4998 16.8268C13.2649 16.8268 13.9986 16.5229 14.5396 15.982C15.0806 15.441 15.3845 14.7073 15.3845 13.9422C15.3845 13.1772 15.0806 12.4435 14.5396 11.9025C13.9986 11.3615 13.2649 11.0576 12.4998 11.0576C11.7348 11.0576 11.0011 11.3615 10.4601 11.9025C9.91915 12.4435 9.61523 13.1772 9.61523 13.9422ZM14.4229 13.9422C14.4229 14.4523 14.2203 14.9414 13.8597 15.3021C13.499 15.6627 13.0099 15.8653 12.4998 15.8653C11.9898 15.8653 11.5007 15.6627 11.14 15.3021C10.7794 14.9414 10.5768 14.4523 10.5768 13.9422C10.5768 13.4322 10.7794 12.9431 11.14 12.5824C11.5007 12.2218 11.9898 12.0192 12.4998 12.0192C13.0099 12.0192 13.499 12.2218 13.8597 12.5824C14.2203 12.9431 14.4229 13.4322 14.4229 13.9422Z" fill="black"/>
</mask>
<g mask="url(#mask0_444_1122)">
<path d="M12.5 25C19.4036 25 25 19.4036 25 12.5C25 5.59644 19.4036 0 12.5 0C5.59644 0 0 5.59644 0 12.5C0 19.4036 5.59644 25 12.5 25Z" fill="#545454"/>
</g>
</g>
<defs>
<clipPath id="clip0_444_1122">
<rect width="25" height="25" fill="white"/>
</clipPath>
</defs>
</svg>
