<svg width="25" height="25" viewBox="0 0 25 25" fill="none" xmlns="http://www.w3.org/2000/svg">
<g clip-path="url(#clip0_452_1324)">
<path fill-rule="evenodd" clip-rule="evenodd" d="M13.4252 23.3493C13.194 23.5201 13.0013 23.3398 12.7253 23.4127C11.9482 23.621 11.0408 23.6326 10.2992 23.4243C5.3273 22.0253 1.99709 19.8347 1.04188 16.566C0.279382 13.9555 1.01271 11.341 2.62522 9.71596C4.11897 8.21075 6.33355 7.60033 8.60542 8.57846C10.0846 6.59512 12.3085 6.01596 14.3544 6.57325C16.5627 7.17429 18.1054 9.15541 18.7502 11.7971C18.8766 12.3151 18.7493 12.484 18.75 13.0208C19.0166 13.1576 19.8565 13.5996 20.0898 13.7962C21.295 14.816 21.9388 16.5482 21.5794 18.3493C21.121 20.6472 18.9908 22.2608 15.944 23.4128C15.4221 23.6108 14.8513 23.8555 14.2815 23.7555C13.9648 23.6993 13.6815 23.5368 13.4252 23.3493ZM2.30862 15.9429C1.75133 14.0335 2.86058 11.8201 3.91995 10.7524C4.93662 9.72742 6.89196 9.23872 8.55862 10.2137C9.14092 10.5543 9.26688 10.2774 9.60021 9.69304C10.5565 8.01492 12.895 7.75137 14.2877 8.13054C15.7398 8.52637 16.942 9.86479 17.4128 11.7971C17.4704 12.029 17.394 12.684 17.4128 12.9277C17.0311 12.9765 16.486 13.0757 16.1356 13.2347C15.0169 12.1441 13.5356 11.9295 12.2294 12.4107C10.7481 12.9555 9.55022 14.3639 9.27105 16.1795C8.98668 18.0389 10.57 19.9295 12.2044 21.6722C12.2044 22.271 10.1114 21.9354 9.8958 21.875C5.07184 20.5177 2.943 18.1148 2.30862 15.9429ZM10.9375 16.1458C11.0646 15.1353 11.9815 14.1346 12.7253 13.8596C13.4128 13.6075 14.5242 14.0628 15.1044 14.9014C15.1909 15.0263 15.355 15.286 15.483 15.368C15.6109 15.4501 15.4756 15.4582 15.6252 15.4846C15.7749 15.511 15.7019 15.4554 15.8502 15.4222C15.9985 15.389 16.7679 14.4681 16.892 14.3804C17.7253 13.7898 19.4586 14.4293 20.017 14.9012C20.6232 15.4137 20.5101 17.2649 20.2934 18.3493C20.0591 19.5264 19.5698 20.7781 16.6666 21.875C16.4823 21.9448 14.4774 22.4809 14.2878 22.5362C14.1284 22.4184 13.917 21.8002 13.767 21.6721C11.4149 19.6481 10.7552 17.3333 10.9375 16.1458Z" fill="#666666"/>
</g>
<defs>
<clipPath id="clip0_452_1324">
<rect width="25" height="25" fill="white"/>
</clipPath>
</defs>
</svg>
