<svg width="22" height="32" viewBox="0 0 22 32" fill="none" xmlns="http://www.w3.org/2000/svg">
<path d="M19 12.9999V8.71986C19.0429 6.55175 18.2253 4.4549 16.726 2.88815C15.2268 1.3214 13.1679 0.412329 11 0.359863C8.8321 0.412329 6.77324 1.3214 5.27396 2.88815C3.77468 4.4549 2.95705 6.55175 3 8.71986V12.9999H0V29.9999C0 30.5303 0.210714 31.039 0.585786 31.4141C0.960859 31.7892 1.46957 31.9999 2 31.9999H20C20.5304 31.9999 21.0391 31.7892 21.4142 31.4141C21.7893 31.039 22 30.5303 22 29.9999V12.9999H19ZM5 8.71986C4.95689 7.0821 5.56376 5.49385 6.68801 4.30214C7.81227 3.11043 9.3625 2.41215 11 2.35986C12.6375 2.41215 14.1877 3.11043 15.312 4.30214C16.4362 5.49385 17.0431 7.0821 17 8.71986V12.9999H5V8.71986ZM2 29.9999V14.9999H20V29.9999H2Z" fill="#666666"/>
</svg>
