<svg width="31" height="30" viewBox="0 0 31 30" fill="none" xmlns="http://www.w3.org/2000/svg">
<path d="M22.8108 14C22.5138 13.625 22.1521 13.3 21.8163 12.975C20.9508 12.225 19.9692 11.6875 19.1425 10.9C17.2179 9.075 16.7917 6.0625 18.0188 3.75C16.7917 4.0375 15.7196 4.6875 14.8025 5.4C11.4571 8 10.1396 12.5875 11.7154 16.525C11.7671 16.65 11.8188 16.775 11.8188 16.9375C11.8188 17.2125 11.625 17.4625 11.3667 17.5625C11.0696 17.6875 10.7596 17.6125 10.5142 17.4125C10.4409 17.3531 10.3796 17.281 10.3333 17.2C8.87375 15.4125 8.64125 12.85 9.62292 10.8C7.46584 12.5 6.29042 15.375 6.45834 18.0875C6.53584 18.7125 6.61334 19.3375 6.83292 19.9625C7.01375 20.7125 7.3625 21.4625 7.75 22.125C9.145 24.2875 11.5604 25.8375 14.1567 26.15C16.9208 26.4875 19.8788 26 21.9971 24.15C24.3608 22.075 25.1875 18.75 23.9733 15.9L23.8054 15.575C23.5342 15 22.8108 14 22.8108 14ZM18.7292 21.875C18.3675 22.175 17.7733 22.5 17.3083 22.625C15.8617 23.125 14.415 22.425 13.5625 21.6C15.0996 21.25 16.0167 20.15 16.2879 19.0375C16.5075 18.0375 16.0942 17.2125 15.9263 16.25C15.7713 15.325 15.7971 14.5375 16.1458 13.675C16.3913 14.15 16.6496 14.625 16.9596 15C17.9542 16.25 19.5171 16.8 19.8529 18.5C19.9046 18.675 19.9304 18.85 19.9304 19.0375C19.9692 20.0625 19.5042 21.1875 18.7292 21.875Z" fill="#FFC700"/>
</svg>
