<svg width="30" height="30" viewBox="0 0 30 30" fill="none" xmlns="http://www.w3.org/2000/svg">
<path fill-rule="evenodd" clip-rule="evenodd" d="M15 30C23.2843 30 30 23.2843 30 15C30 6.71573 23.2843 0 15 0C6.71573 0 0 6.71573 0 15C0 23.2843 6.71573 30 15 30ZM19.3229 23.104L15 20.4894L10.6771 23.0936C9.88542 23.5728 8.91667 22.8644 9.125 21.9686L10.2708 17.0519L6.44792 13.7394C5.75 13.1353 6.125 11.9894 7.04167 11.9165L12.0729 11.4894L14.0417 6.85401C14.3958 6.01026 15.6042 6.01026 15.9583 6.85401L17.9271 11.4998L22.9583 11.9269C23.875 11.9998 24.25 13.1457 23.5521 13.7498L19.7292 17.0623L20.875 21.979C21.0833 22.8748 20.1146 23.5832 19.3229 23.104Z" fill="#F8B827"/>
</svg>
