<svg width="30" height="30" viewBox="0 0 30 30" fill="none" xmlns="http://www.w3.org/2000/svg">
<path fill-rule="evenodd" clip-rule="evenodd" d="M15 30C23.2843 30 30 23.2843 30 15C30 6.71573 23.2843 0 15 0C6.71573 0 0 6.71573 0 15C0 23.2843 6.71573 30 15 30ZM18.762 7.71122C17.3783 7.67294 16.0324 8.16588 15.0007 9.08883C13.9697 8.16538 12.6242 7.67168 11.2405 7.70909C9.8569 7.7465 8.54007 8.31218 7.5604 9.29C6.58073 10.2678 6.01257 11.5836 5.97254 12.9672C5.93252 14.3507 6.42368 15.6971 7.34518 16.7299L14.9989 24.3963L22.6545 16.7299C23.5749 15.6977 24.0656 14.3524 24.026 12.97C23.9864 11.5875 23.4195 10.2725 22.4414 9.29467C21.4624 8.31609 20.1458 7.7495 18.762 7.71122Z" fill="#FF4F4F"/>
</svg>
