<svg width="25" height="25" viewBox="0 0 25 25" fill="none" xmlns="http://www.w3.org/2000/svg">
<path d="M22.1992 7.1648L17.835 2.80152C17.6899 2.65639 17.5176 2.54127 17.328 2.46272C17.1384 2.38418 16.9352 2.34375 16.73 2.34375C16.5248 2.34375 16.3216 2.38418 16.132 2.46272C15.9424 2.54127 15.7701 2.65639 15.625 2.80152L3.58302 14.8435C3.43729 14.9881 3.32176 15.1602 3.24313 15.3498C3.1645 15.5394 3.12435 15.7427 3.12501 15.948V20.3123C3.12501 20.7267 3.28963 21.1241 3.58265 21.4171C3.87568 21.7101 4.27311 21.8748 4.68751 21.8748H9.05177C9.25703 21.8754 9.46038 21.8353 9.64999 21.7566C9.8396 21.678 10.0117 21.5625 10.1563 21.4168L18.3272 13.2468L18.667 14.6043L15.0733 18.197C14.9267 18.3435 14.8442 18.5422 14.8442 18.7494C14.8441 18.9566 14.9263 19.1554 15.0728 19.302C15.2192 19.4486 15.4179 19.531 15.6252 19.5311C15.8324 19.5312 16.0311 19.449 16.1777 19.3025L20.084 15.3962C20.1795 15.3009 20.2487 15.1824 20.2848 15.0523C20.321 14.9222 20.3228 14.785 20.29 14.6541L19.6162 11.9578L22.1992 9.37476C22.3444 9.22967 22.4595 9.0574 22.538 8.86781C22.6166 8.67821 22.657 8.475 22.657 8.26978C22.657 8.06456 22.6166 7.86135 22.538 7.67176C22.4595 7.48216 22.3444 7.3099 22.1992 7.1648ZM4.68751 17.5105L7.48927 20.3123H4.68751V17.5105ZM9.37501 19.989L5.01075 15.6248L13.2813 7.35426L17.6455 11.7185L9.37501 19.989ZM18.75 10.614L14.3867 6.24976L16.7305 3.90601L21.0938 8.27027L18.75 10.614Z" fill="#49A6D0"/>
</svg>
