<svg width="25" height="25" viewBox="0 0 25 25" fill="none" xmlns="http://www.w3.org/2000/svg">
<path d="M21.7158 15.4744L17.1152 13.4129L17.1025 13.407C16.8637 13.3049 16.6032 13.2639 16.3445 13.2878C16.0858 13.3116 15.8372 13.3996 15.6211 13.5437C15.5956 13.5605 15.5712 13.5788 15.5479 13.5984L13.1709 15.6248C11.665 14.8934 10.1104 13.3504 9.37892 11.8641L11.4082 9.45097C11.4277 9.42656 11.4463 9.40215 11.4639 9.37578C11.6049 9.16025 11.6905 8.9132 11.713 8.65661C11.7355 8.40002 11.6942 8.14185 11.5928 7.90508V7.89336L9.5254 3.28496C9.39136 2.97565 9.16087 2.71798 8.86836 2.55043C8.57584 2.38287 8.23697 2.31441 7.90235 2.35527C6.57908 2.5294 5.36444 3.17926 4.4853 4.18349C3.60615 5.18771 3.12262 6.47763 3.12501 7.8123C3.12501 15.5662 9.4336 21.8748 17.1875 21.8748C18.5222 21.8772 19.8121 21.3937 20.8163 20.5145C21.8205 19.6354 22.4704 18.4207 22.6445 17.0975C22.6855 16.7629 22.6172 16.4242 22.4498 16.1317C22.2824 15.8392 22.025 15.6086 21.7158 15.4744ZM17.1875 20.3123C13.8734 20.3087 10.6961 18.9906 8.35267 16.6471C6.00925 14.3037 4.69113 11.1264 4.68751 7.8123C4.68383 6.85868 5.0274 5.93632 5.65405 5.21748C6.28069 4.49865 7.14757 4.03248 8.09278 3.90605C8.09239 3.90995 8.09239 3.91387 8.09278 3.91777L10.1436 8.50762L8.12501 10.9236C8.10448 10.9472 8.08587 10.9723 8.06934 10.9988C7.92239 11.2243 7.83618 11.484 7.81907 11.7526C7.80196 12.0212 7.85453 12.2897 7.97169 12.532C8.85645 14.3416 10.6797 16.1512 12.5088 17.035C12.7529 17.151 13.0229 17.2018 13.2925 17.1823C13.5621 17.1628 13.822 17.0736 14.0469 16.9236C14.072 16.9068 14.0961 16.8886 14.1192 16.8689L16.4932 14.8436L21.083 16.8992H21.0938C20.9689 17.8458 20.5034 18.7144 19.7844 19.3426C19.0655 19.9708 18.1423 20.3155 17.1875 20.3123Z" fill="#49A6D0"/>
</svg>
