<svg width="15" height="15" viewBox="0 0 15 15" fill="none" xmlns="http://www.w3.org/2000/svg">
<path fill-rule="evenodd" clip-rule="evenodd" d="M3.92857 2.5H11.0714C11.4503 2.5 11.8137 2.65051 12.0816 2.91842C12.3495 3.18633 12.5 3.54969 12.5 3.92857V11.0714C12.5 11.4503 12.3495 11.8137 12.0816 12.0816C11.8137 12.3495 11.4503 12.5 11.0714 12.5H3.92857C3.54969 12.5 3.18633 12.3495 2.91842 12.0816C2.65051 11.8137 2.5 11.4503 2.5 11.0714V3.92857C2.5 3.54969 2.65051 3.18633 2.91842 2.91842C3.18633 2.65051 3.54969 2.5 3.92857 2.5Z" stroke="#666666" stroke-linecap="round" stroke-linejoin="round"/>
<path d="M12.5 9.64272L10.3571 7.49986L8.21429 9.632M11.0714 12.4999L4.64286 6.07129L2.5 8.21415" stroke="#666666" stroke-linecap="round" stroke-linejoin="round"/>
<path d="M10.0001 5.71422C10.3945 5.71422 10.7143 5.39442 10.7143 4.99993C10.7143 4.60544 10.3945 4.28564 10.0001 4.28564C9.60556 4.28564 9.28577 4.60544 9.28577 4.99993C9.28577 5.39442 9.60556 5.71422 10.0001 5.71422Z" fill="#666666"/>
</svg>
