<svg width="20" height="20" viewBox="0 0 20 20" fill="none" xmlns="http://www.w3.org/2000/svg">
<path d="M10 0.833496C11.9891 0.833496 13.8968 1.62367 15.3033 3.0302C16.7098 4.43672 17.5 6.34437 17.5 8.3335C17.5 11.4385 15.1333 14.6918 10.5 18.1668C10.3558 18.275 10.1803 18.3335 10 18.3335C9.81969 18.3335 9.64425 18.275 9.5 18.1668C4.86667 14.6918 2.5 11.4385 2.5 8.3335C2.5 6.34437 3.29018 4.43672 4.6967 3.0302C6.10322 1.62367 8.01088 0.833496 10 0.833496ZM10 2.50016C8.4529 2.50016 6.96917 3.11474 5.87521 4.20871C4.78125 5.30267 4.16667 6.7864 4.16667 8.3335C4.16667 10.5918 5.93167 13.1968 9.54 16.0885L10 16.4518L10.46 16.0885C14.0683 13.1968 15.8333 10.5918 15.8333 8.3335C15.8333 6.7864 15.2188 5.30267 14.1248 4.20871C13.0308 3.11474 11.5471 2.50016 10 2.50016ZM10 6.66683C10.442 6.66683 10.866 6.84242 11.1785 7.15498C11.4911 7.46755 11.6667 7.89147 11.6667 8.3335C11.6667 8.77552 11.4911 9.19945 11.1785 9.51201C10.866 9.82457 10.442 10.0002 10 10.0002C9.55797 10.0002 9.13405 9.82457 8.82149 9.51201C8.50893 9.19945 8.33333 8.77552 8.33333 8.3335C8.33333 7.89147 8.50893 7.46755 8.82149 7.15498C9.13405 6.84242 9.55797 6.66683 10 6.66683Z" fill="#45413C"/>
</svg>
