<svg width="15" height="15" viewBox="0 0 15 15" fill="none" xmlns="http://www.w3.org/2000/svg">
<path fill-rule="evenodd" clip-rule="evenodd" d="M4.38849 2.8125H1.87505V1.875H5.1563L5.62505 2.34375V5.625H4.68755V3.75C3.84729 4.38045 3.24315 5.27488 2.97206 6.28978C2.70097 7.30468 2.77864 8.38123 3.19262 9.3467C3.60659 10.3122 4.33287 11.1106 5.25493 11.6139C6.177 12.1172 7.24139 12.2962 8.27736 12.1222C9.31333 11.9481 10.2608 11.4312 10.9678 10.6542C11.6748 9.87723 12.1003 8.8853 12.1761 7.83756C12.2518 6.78981 11.9735 5.74698 11.3856 4.87637C10.7978 4.00576 9.93457 3.35784 8.93442 3.03656L9.21755 2.14219C10.4313 2.53137 11.4768 3.32121 12.1829 4.38232C12.889 5.44343 13.2138 6.7129 13.1041 7.98275C12.9944 9.25259 12.4567 10.4475 11.579 11.3718C10.7014 12.2961 9.53585 12.8949 8.27338 13.0701C7.01091 13.2454 5.72634 12.9867 4.63013 12.3364C3.53392 11.6861 2.69106 10.6828 2.23963 9.49082C1.7882 8.29887 1.75496 6.98893 2.14537 5.77562C2.53577 4.5623 3.32666 3.51754 4.38849 2.8125Z" fill="#CCCCCC"/>
</svg>
