<svg width="28" height="28" viewBox="0 0 28 28" fill="none" xmlns="http://www.w3.org/2000/svg">
<path d="M23.7125 9.68331V7.52498C23.7125 6.66634 23.3714 5.84287 22.7643 5.23572C22.1572 4.62857 21.3337 4.28748 20.475 4.28748H17.2375M17.2375 23.7125H20.475C21.3337 23.7125 22.1572 23.3714 22.7643 22.7642C23.3714 22.1571 23.7125 21.3336 23.7125 20.475V18.3166M4.28754 18.3166V20.475C4.28754 21.3336 4.62863 22.1571 5.23578 22.7642C5.84293 23.3714 6.6664 23.7125 7.52504 23.7125H10.7625M10.7625 4.28748H7.52504C6.6664 4.28748 5.84293 4.62857 5.23578 5.23572C4.62863 5.84287 4.28754 6.66634 4.28754 7.52498V9.68331M3.20837 14H24.7917" stroke="#9F9F9F" stroke-width="1.5" stroke-linecap="round" stroke-linejoin="round"/>
</svg>
