<svg width="13" height="11" viewBox="0 0 13 11" fill="none" xmlns="http://www.w3.org/2000/svg">
<path d="M6.50003 1.8335C8.82378 1.8335 10.7592 2.94679 12.2769 5.11241L12.3961 5.28612L12.4204 5.33195L12.4367 5.37L12.4443 5.3952L12.4519 5.43279L12.4578 5.47862V5.52904L12.4502 5.57991C12.4467 5.59693 12.442 5.61376 12.4362 5.63033L12.415 5.67983L12.3955 5.7142L12.3869 5.72795C10.8897 7.94445 8.97436 9.11045 6.66957 9.165L6.50003 9.16683C4.11886 9.16683 2.14665 7.99854 0.613195 5.7275C0.566455 5.65826 0.54187 5.5799 0.54187 5.50016C0.54187 5.42043 0.566455 5.34207 0.613195 5.27283C2.14665 3.00179 4.11886 1.8335 6.50003 1.8335ZM6.50003 4.12516C6.06905 4.12516 5.65573 4.27003 5.35098 4.52789C5.04623 4.78575 4.87503 5.13549 4.87503 5.50016C4.87503 5.86484 5.04623 6.21457 5.35098 6.47243C5.65573 6.7303 6.06905 6.87516 6.50003 6.87516C6.93101 6.87516 7.34433 6.7303 7.64908 6.47243C7.95382 6.21457 8.12503 5.86484 8.12503 5.50016C8.12503 5.13549 7.95382 4.78575 7.64908 4.52789C7.34433 4.27003 6.93101 4.12516 6.50003 4.12516Z" fill="white"/>
</svg>
