<svg width="20" height="20" viewBox="0 0 20 20" fill="none" xmlns="http://www.w3.org/2000/svg">
<path d="M10.1859 9.22917C10.1171 9.30838 10.0807 9.41068 10.0839 9.51559C10.0872 9.62051 10.13 9.72031 10.2037 9.79506C10.2774 9.86981 10.3766 9.91399 10.4814 9.91877C10.5863 9.92354 10.6891 9.88857 10.7693 9.82083L16.6026 3.9875V6.97083C16.6048 7.08067 16.6493 7.18542 16.727 7.2631C16.8047 7.34078 16.9094 7.38537 17.0193 7.3875C17.1298 7.3875 17.2358 7.3436 17.3139 7.26546C17.3921 7.18732 17.436 7.08134 17.436 6.97083V2.97917C17.436 2.86866 17.3921 2.76268 17.3139 2.68454C17.2358 2.6064 17.1298 2.5625 17.0193 2.5625H13.0276C12.9171 2.5625 12.8111 2.6064 12.733 2.68454C12.6548 2.76268 12.611 2.86866 12.611 2.97917C12.611 3.08967 12.6548 3.19565 12.733 3.27379C12.8111 3.35193 12.9171 3.39583 13.0276 3.39583H16.0109L10.1859 9.22917Z" fill="#545454"/>
<path d="M14.8968 17.4382H5.10343C4.42955 17.4375 3.78345 17.1695 3.30694 16.693C2.83042 16.2165 2.56243 15.5704 2.56177 14.8965V5.10319C2.56243 4.4293 2.83042 3.7832 3.30694 3.30669C3.78345 2.83018 4.42955 2.56219 5.10343 2.56152H10.1268C10.2373 2.56152 10.3433 2.60542 10.4214 2.68356C10.4995 2.7617 10.5434 2.86768 10.5434 2.97819C10.5434 3.0887 10.4995 3.19468 10.4214 3.27282C10.3433 3.35096 10.2373 3.39486 10.1268 3.39486H5.10343C4.65056 3.39552 4.21642 3.57572 3.89619 3.89595C3.57596 4.21618 3.39576 4.65032 3.3951 5.10319V14.8965C3.39576 15.3494 3.57596 15.7835 3.89619 16.1038C4.21642 16.424 4.65056 16.6042 5.10343 16.6049H14.8968C15.3496 16.6042 15.7838 16.424 16.104 16.1038C16.4242 15.7835 16.6044 15.3494 16.6051 14.8965V9.87402C16.6051 9.76352 16.649 9.65754 16.7271 9.5794C16.8053 9.50126 16.9113 9.45736 17.0218 9.45736C17.1323 9.45736 17.2383 9.50126 17.3164 9.5794C17.3945 9.65754 17.4384 9.76352 17.4384 9.87402V14.8965C17.4378 15.5704 17.1698 16.2165 16.6933 16.693C16.2168 17.1695 15.5707 17.4375 14.8968 17.4382Z" fill="#545454"/>
</svg>
