<svg width="88" height="75" viewBox="0 0 88 75" fill="none" xmlns="http://www.w3.org/2000/svg">
<path d="M45.8282 0C40.5209 1.37235 33.808 6.24418 31.115 8.50856L29.9326 5.76386C28.9867 4.88556 28.0059 5.16918 27.6337 5.42077C22.6417 10.4298 24.0211 14.2038 22.2476 15.5075C20.4742 16.8113 15.8106 22.7124 15.8106 22.9868C15.8106 23.2613 12.1322 24.6336 9.57057 24.9767C7.00889 25.3198 6.61481 25.6629 5.36679 27.2411C4.36836 28.5037 5.38867 30.4661 6.02363 31.2895C8.54589 36.3398 13.8181 38.197 16.139 38.4944L15.8106 40.9646C13.3934 45.7404 8.27878 42.9545 6.02363 40.9646C4.49976 38.2748 3.54955 38.197 3.26493 38.4944C-5.47105 48.6497 6.02366 56.8838 6.61481 57.0897C7.20597 57.2955 7.79713 57.9817 12.4607 57.9817C17.1243 57.9817 20.2114 54.2077 20.8683 54.345C21.5251 54.4822 20.2771 55.3056 20.8683 59.2854C21.3412 62.4693 21.9849 63.8142 22.2476 64.0886C22.9045 65.0493 24.4021 66.8882 25.1377 66.5589C27.1082 68.3429 30.4581 66.902 32.0346 66.5589C33.2957 66.2844 36.5886 64.02 38.0775 62.9222C41.1646 58.5993 40.5735 63.0594 40.7048 64.0886C40.8362 65.1179 41.6244 66.902 43.3322 67.5881C45.04 68.2743 44.2518 67.6568 44.7116 69.0977C45.0794 70.2505 46.3975 71.6823 47.0105 72.2541C48.0396 72.6201 50.1765 73.3794 50.4918 73.4892C50.8859 73.6265 51.8055 74.9302 54.4985 74.9988C56.6529 75.0537 57.7608 73.1919 58.0454 72.2541C59.6744 71.4307 59.8189 64.2259 59.6875 60.7264C61.5486 63.3567 66.4005 68.7135 70.9195 69.0977C76.5683 69.578 78.7359 68.8232 82.6113 66.5589C86.4866 64.2945 86.2239 61.6184 86.0269 60.7264C85.8692 60.0128 81.9325 58.5535 79.9839 57.9131C77.4091 58.1876 73.7439 53.0412 72.2332 50.4338C72.2332 49.8848 72.6711 48.1008 72.89 47.2774C75.386 50.5024 84.3848 51.9434 87.2092 47.2774C90.0336 42.6114 84.3848 36.23 84.3848 36.6417C84.3848 37.0534 79.0643 29.1624 78.2761 26.898C77.6456 25.0865 74.8606 18.3208 73.5469 15.1644C71.7734 8.23409 68.6206 4.25428 66.9785 4.25428C65.6648 4.25428 62.6652 6.40429 61.3296 7.4793C59.4379 5.11886 52.3528 4.34577 49.0467 4.25428C48.7183 2.83619 47.6148 0 45.8282 0Z" fill="#C8D5B5"/>
</svg>
