<svg width="23" height="20" viewBox="0 0 23 20" fill="none" xmlns="http://www.w3.org/2000/svg">
<g clip-path="url(#clip0_207_27)">
<path d="M11.5575 11.439C11.2135 11.4412 10.8803 11.5436 10.611 11.7297C10.3418 11.9158 10.1519 12.175 10.0718 12.4659C9.99165 12.7568 10.0258 13.0626 10.1689 13.3346C10.312 13.6067 10.5556 13.8292 10.8611 13.9667V15.5556H12.1389V14.0167C12.4688 13.8992 12.7415 13.6857 12.9106 13.4128C13.0796 13.1399 13.1346 12.8244 13.0659 12.5202C12.9973 12.216 12.8094 11.9419 12.5343 11.7447C12.2593 11.5475 11.914 11.4395 11.5575 11.439Z" fill="#45413C"/>
<path d="M16.6111 8.33326L15.9962 5.95548C15.6198 4.5 15.5 4.0368 15.1583 2.71564C14.2004 1.84522 12.8851 1.34018 11.5 1.31104C10.115 1.34018 8.79959 1.84522 7.84172 2.71564C6.88384 3.58606 6.36147 4.75097 6.38891 5.95548V8.33326H4.47224V17.7777C4.47224 18.0724 4.60687 18.355 4.8465 18.5634C5.08613 18.7718 5.41113 18.8888 5.75002 18.8888H17.25C17.5889 18.8888 17.9139 18.7718 18.1535 18.5634C18.3932 18.355 18.5278 18.0724 18.5278 17.7777V8.33326H16.6111ZM7.66669 5.95548C7.63914 5.04561 8.02687 4.16325 8.74514 3.50119C9.46342 2.83913 10.4538 2.45119 11.5 2.42215C12.5462 2.45119 13.5366 2.83913 14.2549 3.50119C14.9732 4.16325 15.1026 2.5 15.1583 2.71564L16.6111 8.33326H7.66669V5.95548ZM5.75002 17.7777V9.44437H17.25V17.7777H5.75002Z" fill="#45413C"/>
</g>
<defs>
<clipPath id="clip0_207_27">
<rect width="23" height="20" fill="white"/>
</clipPath>
</defs>
</svg>
