<svg width="28" height="28" viewBox="0 0 28 28" fill="none" xmlns="http://www.w3.org/2000/svg">
<path d="M14 17.9375C15.3919 17.9359 16.7263 17.3823 17.7106 16.3981C18.6948 15.4138 19.2484 14.0794 19.25 12.6875V6.125C19.25 4.73261 18.6969 3.39726 17.7123 2.41269C16.7277 1.42812 15.3924 0.875 14 0.875C12.6076 0.875 11.2723 1.42812 10.2877 2.41269C9.30312 3.39726 8.75 4.73261 8.75 6.125V12.6875C8.75159 14.0794 9.30523 15.4138 10.2894 16.3981C11.2737 17.3823 12.6081 17.9359 14 17.9375ZM10.5 6.125C10.5 5.19674 10.8687 4.3065 11.5251 3.65013C12.1815 2.99375 13.0717 2.625 14 2.625C14.9283 2.625 15.8185 2.99375 16.4749 3.65013C17.1313 4.3065 17.5 5.19674 17.5 6.125V12.6875C17.5 13.6158 17.1313 14.506 16.4749 15.1624C15.8185 15.8188 14.9283 16.1875 14 16.1875C13.0717 16.1875 12.1815 15.8188 11.5251 15.1624C10.8687 14.506 10.5 13.6158 10.5 12.6875V6.125Z" fill="#9F9F9F"/>
<path d="M21.875 9.625V12.6875C21.875 17.0297 18.3422 20.5625 14 20.5625C9.65781 20.5625 6.125 17.0297 6.125 12.6875V9.625H4.375V12.6875C4.375 17.6998 8.22631 21.8287 13.125 22.2723V27.125H14.875V22.2723C19.7737 21.8287 23.625 17.6998 23.625 12.6875V9.625H21.875Z" fill="#9F9F9F"/>
</svg>
